<svg xmlns="http://www.w3.org/2000/svg" xmlns:xlink="http://www.w3.org/1999/xlink" width="500" zoomAndPan="magnify" viewBox="0 0 375 374.999991" height="500" preserveAspectRatio="xMidYMid meet" version="1.0"><defs><clipPath id="59bd82e1af"><path d="M 13.3125 19.261719 L 369.050781 19.261719 L 369.050781 375 L 13.3125 375 Z M 13.3125 19.261719 " clip-rule="nonzero"/></clipPath><clipPath id="49392e0b56"><path d="M 191.183594 19.261719 C 92.949219 19.261719 13.3125 98.898438 13.3125 197.132812 C 13.3125 295.367188 92.949219 375 191.183594 375 C 289.417969 375 369.050781 295.367188 369.050781 197.132812 C 369.050781 98.898438 289.417969 19.261719 191.183594 19.261719 Z M 191.183594 19.261719 " clip-rule="nonzero"/></clipPath><clipPath id="8d9c8dba66"><path d="M 0.3125 0.261719 L 356.050781 0.261719 L 356.050781 356 L 0.3125 356 Z M 0.3125 0.261719 " clip-rule="nonzero"/></clipPath><clipPath id="7f9426744a"><path d="M 178.183594 0.261719 C 79.949219 0.261719 0.3125 79.898438 0.3125 178.132812 C 0.3125 276.367188 79.949219 356 178.183594 356 C 276.417969 356 356.050781 276.367188 356.050781 178.132812 C 356.050781 79.898438 276.417969 0.261719 178.183594 0.261719 Z M 178.183594 0.261719 " clip-rule="nonzero"/></clipPath><clipPath id="51c4b2169b"><rect x="0" width="357" y="0" height="356"/></clipPath><clipPath id="f1f6cc2913"><path d="M 0 0 L 375 0 L 375 375 L 0 375 Z M 0 0 " clip-rule="nonzero"/></clipPath><clipPath id="d89b2eb273"><path d="M 187.5 0 C 83.945312 0 0 83.945312 0 187.5 C 0 291.054688 83.945312 375 187.5 375 C 291.054688 375 375 291.054688 375 187.5 C 375 83.945312 291.054688 0 187.5 0 Z M 187.5 0 " clip-rule="nonzero"/></clipPath><clipPath id="facc50589f"><path d="M 0 0 L 375 0 L 375 375 L 0 375 Z M 0 0 " clip-rule="nonzero"/></clipPath><clipPath id="5d64fbe35c"><path d="M 187.5 0 C 83.945312 0 0 83.945312 0 187.5 C 0 291.054688 83.945312 375 187.5 375 C 291.054688 375 375 291.054688 375 187.5 C 375 83.945312 291.054688 0 187.5 0 Z M 187.5 0 " clip-rule="nonzero"/></clipPath><clipPath id="b89aab1c10"><rect x="0" width="375" y="0" height="375"/></clipPath><clipPath id="fc326fc0a2"><path d="M 52.511719 86.195312 L 322.488281 86.195312 L 322.488281 295 L 52.511719 295 Z M 52.511719 86.195312 " clip-rule="nonzero"/></clipPath><clipPath id="2fa8f044b9"><rect x="0" width="375" y="0" height="375"/></clipPath></defs><g clip-path="url(#59bd82e1af)"><g clip-path="url(#49392e0b56)"><g transform="matrix(1, 0, 0, 1, 13, 19)"><g clip-path="url(#51c4b2169b)"><g clip-path="url(#8d9c8dba66)"><g clip-path="url(#7f9426744a)"><path fill="#ffffff" d="M 0.3125 0.261719 L 356.050781 0.261719 L 356.050781 356 L 0.3125 356 Z M 0.3125 0.261719 " fill-opacity="1" fill-rule="nonzero"/></g></g></g></g></g></g><g transform="matrix(1, 0, 0, 1, 0, 0)"><g clip-path="url(#2fa8f044b9)"><g clip-path="url(#f1f6cc2913)"><g clip-path="url(#d89b2eb273)"><g transform="matrix(1, 0, 0, 1, 0, 0)"><g clip-path="url(#b89aab1c10)"><g clip-path="url(#facc50589f)"><g clip-path="url(#5d64fbe35c)"><rect x="-136.5" width="648" fill="#f45a5a" y="-136.499997" height="647.999984" fill-opacity="1"/></g></g></g></g></g></g><g clip-path="url(#fc326fc0a2)"><path fill="#ffffff" d="M 319.523438 129.472656 C 317.382812 126.878906 314.195312 125.375 310.828125 125.375 L 118.40625 125.375 L 109.144531 94.261719 C 107.722656 89.480469 103.328125 86.203125 98.335938 86.203125 L 63.910156 86.203125 C 57.679688 86.203125 52.628906 91.253906 52.628906 97.480469 C 52.628906 103.710938 57.679688 108.757812 63.910156 108.757812 L 89.925781 108.757812 L 132.074219 250.332031 C 127.503906 258.710938 123.171875 270.703125 128.085938 280.75 C 132.4375 289.640625 142.265625 294.152344 157.300781 294.152344 C 157.570312 294.152344 157.84375 294.144531 158.117188 294.117188 C 159.09375 294.027344 256.253906 285.117188 289.753906 287.015625 C 294.636719 287.277344 298.867188 283.539062 299.144531 278.628906 C 299.421875 273.71875 295.664062 269.511719 290.753906 269.242188 C 256.742188 267.320312 164.898438 275.613281 156.90625 276.347656 C 148.660156 276.292969 144.84375 274.476562 144.082031 272.925781 C 143.234375 271.199219 143.835938 267.929688 145.265625 264.234375 C 145.507812 264.21875 145.742188 264.21875 145.988281 264.1875 L 293.183594 246.382812 C 298.050781 245.792969 301.980469 242.128906 302.90625 237.320312 L 321.902344 138.792969 C 322.535156 135.484375 321.664062 132.066406 319.523438 129.472656 Z M 237.820312 184.179688 L 191.523438 184.179688 L 191.523438 147.929688 L 237.820312 147.929688 Z M 139.097656 194.863281 L 180.839844 194.863281 L 180.839844 237.25 L 152.726562 240.65625 Z M 191.523438 194.863281 L 237.820312 194.863281 L 237.820312 230.359375 L 191.523438 235.957031 Z M 290.183594 184.179688 L 248.503906 184.179688 L 248.503906 147.929688 L 297.171875 147.929688 Z M 180.839844 147.929688 L 180.839844 184.179688 L 135.914062 184.179688 L 125.125 147.929688 Z M 248.503906 229.066406 L 248.503906 194.863281 L 288.121094 194.863281 L 282.316406 224.972656 Z M 248.503906 229.066406 " fill-opacity="1" fill-rule="nonzero"/></g><path fill="#ffffff" d="M 166 325.378906 C 166 326.117188 165.964844 326.855469 165.890625 327.589844 C 165.820312 328.324219 165.710938 329.050781 165.566406 329.777344 C 165.425781 330.5 165.246094 331.214844 165.03125 331.921875 C 164.816406 332.628906 164.566406 333.320312 164.285156 334.003906 C 164.003906 334.683594 163.6875 335.351562 163.339844 336.003906 C 162.992188 336.652344 162.613281 337.285156 162.203125 337.898438 C 161.792969 338.511719 161.355469 339.105469 160.886719 339.675781 C 160.417969 340.246094 159.921875 340.792969 159.402344 341.3125 C 158.878906 341.835938 158.332031 342.332031 157.761719 342.796875 C 157.191406 343.265625 156.601562 343.707031 155.984375 344.117188 C 155.371094 344.527344 154.742188 344.90625 154.089844 345.253906 C 153.4375 345.601562 152.773438 345.914062 152.089844 346.199219 C 151.410156 346.480469 150.714844 346.730469 150.007812 346.945312 C 149.300781 347.15625 148.585938 347.335938 147.863281 347.480469 C 147.140625 347.625 146.410156 347.734375 145.675781 347.804688 C 144.941406 347.878906 144.207031 347.914062 143.46875 347.914062 C 142.730469 347.914062 141.992188 347.878906 141.257812 347.804688 C 140.523438 347.734375 139.792969 347.625 139.070312 347.480469 C 138.347656 347.335938 137.632812 347.15625 136.925781 346.945312 C 136.21875 346.730469 135.527344 346.480469 134.84375 346.199219 C 134.160156 345.914062 133.496094 345.601562 132.84375 345.253906 C 132.195312 344.90625 131.5625 344.527344 130.949219 344.117188 C 130.335938 343.707031 129.742188 343.265625 129.171875 342.796875 C 128.601562 342.332031 128.054688 341.835938 127.535156 341.3125 C 127.011719 340.792969 126.515625 340.246094 126.046875 339.675781 C 125.582031 339.105469 125.140625 338.511719 124.730469 337.898438 C 124.320312 337.285156 123.941406 336.652344 123.59375 336.003906 C 123.246094 335.351562 122.929688 334.683594 122.648438 334.003906 C 122.367188 333.320312 122.117188 332.628906 121.902344 331.921875 C 121.691406 331.214844 121.511719 330.5 121.367188 329.777344 C 121.222656 329.050781 121.113281 328.324219 121.042969 327.589844 C 120.96875 326.855469 120.933594 326.117188 120.933594 325.378906 C 120.933594 324.640625 120.96875 323.90625 121.042969 323.171875 C 121.113281 322.4375 121.222656 321.707031 121.367188 320.984375 C 121.511719 320.261719 121.691406 319.546875 121.902344 318.839844 C 122.117188 318.132812 122.367188 317.4375 122.648438 316.757812 C 122.929688 316.074219 123.246094 315.410156 123.59375 314.757812 C 123.941406 314.105469 124.320312 313.472656 124.730469 312.859375 C 125.140625 312.246094 125.582031 311.65625 126.046875 311.085938 C 126.515625 310.515625 127.011719 309.96875 127.535156 309.445312 C 128.054688 308.925781 128.601562 308.429688 129.171875 307.960938 C 129.742188 307.492188 130.335938 307.054688 130.949219 306.644531 C 131.5625 306.234375 132.195312 305.855469 132.84375 305.507812 C 133.496094 305.160156 134.160156 304.84375 134.84375 304.5625 C 135.527344 304.277344 136.21875 304.03125 136.925781 303.816406 C 137.632812 303.601562 138.347656 303.421875 139.070312 303.277344 C 139.792969 303.136719 140.523438 303.027344 141.257812 302.953125 C 141.992188 302.882812 142.730469 302.847656 143.46875 302.847656 C 144.207031 302.847656 144.941406 302.882812 145.675781 302.953125 C 146.410156 303.027344 147.140625 303.136719 147.863281 303.277344 C 148.585938 303.421875 149.300781 303.601562 150.007812 303.816406 C 150.714844 304.03125 151.410156 304.277344 152.089844 304.5625 C 152.773438 304.84375 153.4375 305.160156 154.089844 305.507812 C 154.742188 305.855469 155.371094 306.234375 155.984375 306.644531 C 156.601562 307.054688 157.191406 307.492188 157.761719 307.960938 C 158.332031 308.429688 158.878906 308.925781 159.402344 309.445312 C 159.921875 309.96875 160.417969 310.515625 160.886719 311.085938 C 161.355469 311.65625 161.792969 312.246094 162.203125 312.859375 C 162.613281 313.472656 162.992188 314.105469 163.339844 314.757812 C 163.6875 315.410156 164.003906 316.074219 164.285156 316.757812 C 164.566406 317.4375 164.816406 318.132812 165.03125 318.839844 C 165.246094 319.546875 165.425781 320.261719 165.566406 320.984375 C 165.710938 321.707031 165.820312 322.4375 165.890625 323.171875 C 165.964844 323.90625 166 324.640625 166 325.378906 Z M 166 325.378906 " fill-opacity="1" fill-rule="nonzero"/><path fill="#ffffff" d="M 294.207031 325.378906 C 294.207031 326.117188 294.171875 326.855469 294.097656 327.589844 C 294.027344 328.324219 293.917969 329.050781 293.773438 329.777344 C 293.628906 330.5 293.449219 331.214844 293.234375 331.921875 C 293.023438 332.628906 292.773438 333.320312 292.492188 334.003906 C 292.207031 334.683594 291.894531 335.351562 291.546875 336.003906 C 291.199219 336.652344 290.820312 337.285156 290.410156 337.898438 C 290 338.511719 289.558594 339.105469 289.089844 339.675781 C 288.625 340.246094 288.128906 340.792969 287.605469 341.3125 C 287.085938 341.835938 286.539062 342.332031 285.96875 342.796875 C 285.398438 343.265625 284.804688 343.707031 284.191406 344.117188 C 283.578125 344.527344 282.945312 344.90625 282.296875 345.253906 C 281.644531 345.601562 280.976562 345.914062 280.296875 346.199219 C 279.613281 346.480469 278.921875 346.730469 278.214844 346.945312 C 277.507812 347.15625 276.792969 347.335938 276.070312 347.480469 C 275.34375 347.625 274.617188 347.734375 273.882812 347.804688 C 273.148438 347.878906 272.410156 347.914062 271.671875 347.914062 C 270.933594 347.914062 270.199219 347.878906 269.464844 347.804688 C 268.730469 347.734375 268 347.625 267.277344 347.480469 C 266.554688 347.335938 265.835938 347.15625 265.132812 346.945312 C 264.425781 346.730469 263.730469 346.480469 263.050781 346.199219 C 262.367188 345.914062 261.703125 345.601562 261.050781 345.253906 C 260.398438 344.90625 259.765625 344.527344 259.152344 344.117188 C 258.539062 343.707031 257.949219 343.265625 257.378906 342.796875 C 256.808594 342.332031 256.261719 341.835938 255.738281 341.3125 C 255.21875 340.792969 254.722656 340.246094 254.253906 339.675781 C 253.785156 339.105469 253.347656 338.511719 252.9375 337.898438 C 252.527344 337.285156 252.148438 336.652344 251.800781 336.003906 C 251.453125 335.351562 251.136719 334.683594 250.855469 334.003906 C 250.570312 333.320312 250.324219 332.628906 250.109375 331.921875 C 249.894531 331.214844 249.714844 330.5 249.570312 329.777344 C 249.429688 329.050781 249.320312 328.324219 249.246094 327.589844 C 249.175781 326.855469 249.140625 326.117188 249.140625 325.378906 C 249.140625 324.640625 249.175781 323.90625 249.246094 323.171875 C 249.320312 322.4375 249.429688 321.707031 249.570312 320.984375 C 249.714844 320.261719 249.894531 319.546875 250.109375 318.839844 C 250.324219 318.132812 250.570312 317.4375 250.855469 316.757812 C 251.136719 316.074219 251.453125 315.410156 251.800781 314.757812 C 252.148438 314.105469 252.527344 313.472656 252.9375 312.859375 C 253.347656 312.246094 253.785156 311.65625 254.253906 311.085938 C 254.722656 310.515625 255.21875 309.96875 255.738281 309.445312 C 256.261719 308.925781 256.808594 308.429688 257.378906 307.960938 C 257.949219 307.492188 258.539062 307.054688 259.152344 306.644531 C 259.765625 306.234375 260.398438 305.855469 261.050781 305.507812 C 261.703125 305.160156 262.367188 304.84375 263.050781 304.5625 C 263.730469 304.277344 264.425781 304.03125 265.132812 303.816406 C 265.835938 303.601562 266.550781 303.421875 267.277344 303.277344 C 268 303.136719 268.730469 303.027344 269.464844 302.953125 C 270.199219 302.882812 270.933594 302.847656 271.671875 302.847656 C 272.410156 302.847656 273.148438 302.882812 273.882812 302.953125 C 274.617188 303.027344 275.34375 303.136719 276.070312 303.277344 C 276.792969 303.421875 277.507812 303.601562 278.214844 303.816406 C 278.921875 304.03125 279.613281 304.277344 280.296875 304.5625 C 280.976562 304.84375 281.644531 305.160156 282.296875 305.507812 C 282.945312 305.855469 283.578125 306.234375 284.191406 306.644531 C 284.804688 307.054688 285.398438 307.492188 285.96875 307.960938 C 286.539062 308.429688 287.085938 308.925781 287.605469 309.445312 C 288.128906 309.96875 288.625 310.515625 289.089844 311.085938 C 289.558594 311.65625 290 312.246094 290.410156 312.859375 C 290.820312 313.472656 291.199219 314.105469 291.546875 314.757812 C 291.894531 315.410156 292.207031 316.074219 292.492188 316.757812 C 292.773438 317.4375 293.023438 318.132812 293.234375 318.839844 C 293.449219 319.546875 293.628906 320.261719 293.773438 320.984375 C 293.917969 321.707031 294.027344 322.4375 294.097656 323.171875 C 294.171875 323.90625 294.207031 324.640625 294.207031 325.378906 Z M 294.207031 325.378906 " fill-opacity="1" fill-rule="nonzero"/></g></g></svg>